<svg width="15" height="15" viewBox="0 0 15 15" fill="none" xmlns="http://www.w3.org/2000/svg">
<path d="M8.67188 14.627C8.67188 14.832 8.32031 14.9346 7.61719 14.9346C6.91406 14.9346 6.5625 14.832 6.5625 14.627V8.57715H1.46484C1.19141 8.57715 1.00586 8.32324 0.908203 7.81543C0.888672 7.68848 0.878906 7.56641 0.878906 7.44922C0.869141 7.43945 0.864258 7.4248 0.864258 7.40527C0.864258 7.30762 0.878906 7.2002 0.908203 7.08301C0.927734 6.95605 0.961914 6.83398 1.01074 6.7168C1.12793 6.45312 1.27441 6.32129 1.4502 6.32129H6.5625V0.916016C6.5625 0.710938 6.91406 0.608398 7.61719 0.608398C8.32031 0.608398 8.67188 0.710938 8.67188 0.916016V6.32129H13.7988C14.0527 6.32129 14.2285 6.56543 14.3262 7.05371C14.3457 7.18066 14.3604 7.29785 14.3701 7.40527C14.3701 7.84473 14.2969 8.15234 14.1504 8.32812C14.0137 8.49414 13.8965 8.57715 13.7988 8.57715H8.67188V14.627Z" fill="white"/>
</svg>
