<svg width="10" height="4" viewBox="0 0 10 4" fill="none" xmlns="http://www.w3.org/2000/svg">
<path d="M9.25391 0.225098C9.55013 0.225098 9.75521 0.561198 9.86914 1.2334C9.89193 1.3929 9.90332 1.54102 9.90332 1.67773C9.90332 2.27018 9.81787 2.68034 9.64697 2.9082C9.48747 3.12467 9.35075 3.23291 9.23682 3.23291H1.59766C1.27865 3.23291 1.06217 2.88542 0.948242 2.19043C0.925456 2.03092 0.914062 1.88281 0.914062 1.74609C0.914062 1.60938 0.925456 1.45557 0.948242 1.28467C0.982422 1.11377 1.02799 0.948568 1.08496 0.789062C1.22168 0.413086 1.39827 0.225098 1.61475 0.225098H9.25391Z" fill="white"/>
</svg>
